<svg xmlns="http://www.w3.org/2000/svg" xmlns:svg="http://www.w3.org/2000/svg" id="svg4620" width="480" height="128.5mm" version="1.1" viewBox="0 0 127 128.5"><defs id="defs4614"><style id="style6" type="text/css">.str0{stroke:#565656;stroke-width:.0966867}.str1{stroke:#4f4f4f;stroke-width:.193345}.fil0{fill:none}</style></defs><metadata id="metadata4617"/><g id="layer1" transform="translate(0,-168.5)"><g id="g843" transform="translate(41.054733)"><g id="g5299" transform="matrix(6.342689,0,0,6.342689,5.4472535,175.6457)" style="fill-rule:evenodd"><g id="Layer_x0020_1" transform="translate(-1.6191379e-5,-0.08553947)"><metadata id="CorelCorpID_0Corel-Layer"/><circle id="circle10" cx=".525" cy=".611" r=".159" class="fil0 str0" style="fill:none;stroke:#fff;stroke-width:.0966867;stroke-opacity:1"/><circle id="circle12" cx=".525" cy=".611" r=".429" class="fil0 str1" style="fill:none;stroke:#fff;stroke-width:.193345;stroke-opacity:1"/></g></g><g id="text5303" aria-label="Cardinal" transform="translate(-0.09449404,0.14174107)" style="font-style:normal;font-variant:normal;font-weight:400;font-stretch:normal;font-size:10.58333302px;line-height:1.25;font-family:'DejaVu Sans';-inkscape-font-specification:'DejaVu Sans, Normal';font-variant-ligatures:normal;font-variant-caps:normal;font-variant-numeric:normal;text-align:start;letter-spacing:0;word-spacing:0;writing-mode:lr-tb;text-anchor:start;fill:#000;fill-opacity:1;stroke:none;stroke-width:.26458332"><path id="path5305" d="m 17.923601,176.99103 v 0.66043 q -0.31626,-0.29456 -0.675928,-0.44028 -0.356567,-0.14573 -0.759643,-0.14573 -0.79375,0 -1.21543,0.48679 -0.42168,0.48369 -0.42168,1.40146 0,0.91468 0.42168,1.40147 0.42168,0.48369 1.21543,0.48369 0.403076,0 0.759643,-0.14573 0.359668,-0.14572 0.675928,-0.44028 v 0.65422 q -0.328662,0.22325 -0.697632,0.33487 -0.365869,0.11162 -0.775146,0.11162 -1.051099,0 -1.655713,-0.64182 -0.604615,-0.64492 -0.604615,-1.75804 0,-1.11621 0.604615,-1.75803 0.604614,-0.64492 1.655713,-0.64492 0.415478,0 0.781347,0.11162 0.36897,0.10852 0.691431,0.32866 z" style="font-style:normal;font-variant:normal;font-weight:400;font-stretch:normal;font-size:6.3499999px;font-family:'DejaVu Sans';-inkscape-font-specification:'DejaVu Sans, Normal';font-variant-ligatures:normal;font-variant-caps:normal;font-variant-numeric:normal;font-feature-settings:normal;text-align:start;writing-mode:lr-tb;text-anchor:start;fill:#fff;fill-opacity:1;stroke-width:.26458332"/><path id="path5307" d="m 20.444377,179.51801 q -0.69143,0 -0.958081,0.15813 -0.26665,0.15813 -0.26665,0.5395 0,0.30386 0.198437,0.48369 0.201538,0.17674 0.545703,0.17674 0.47439,0 0.759644,-0.33487 0.288355,-0.33796 0.288355,-0.89606 v -0.12713 z m 1.137915,-0.23564 v 1.98127 h -0.570507 v -0.5271 q -0.195337,0.31626 -0.486792,0.46819 -0.291456,0.14883 -0.713135,0.14883 -0.533301,0 -0.849561,-0.29766 -0.313159,-0.30075 -0.313159,-0.80305 0,-0.58601 0.390674,-0.88367 0.393774,-0.29765 1.172021,-0.29765 h 0.799952 v -0.0558 q 0,-0.39378 -0.26045,-0.60772 -0.257348,-0.21704 -0.725537,-0.21704 -0.297656,0 -0.579809,0.0713 -0.282154,0.0713 -0.542603,0.21394 v -0.52709 q 0.313159,-0.12093 0.607715,-0.17984 0.294556,-0.062 0.573608,-0.062 0.753443,0 1.125513,0.39067 0.37207,0.39068 0.37207,1.18443 z" style="font-style:normal;font-variant:normal;font-weight:400;font-stretch:normal;font-size:6.3499999px;font-family:'DejaVu Sans';-inkscape-font-specification:'DejaVu Sans, Normal';font-variant-ligatures:normal;font-variant-caps:normal;font-variant-numeric:normal;font-feature-settings:normal;text-align:start;writing-mode:lr-tb;text-anchor:start;fill:#fff;fill-opacity:1;stroke-width:.26458332"/><path id="path5309" d="m 24.769695,178.32429 q -0.09612,-0.0558 -0.21084,-0.0806 -0.111621,-0.0279 -0.248047,-0.0279 -0.483691,0 -0.744141,0.31626 -0.257348,0.31315 -0.257348,0.90227 v 1.82934 H 22.73571 v -3.47265 h 0.573609 v 0.5395 q 0.179834,-0.31626 0.468188,-0.46819 0.288355,-0.15503 0.700733,-0.15503 0.05891,0 0.130224,0.009 0.07131,0.006 0.15813,0.0217 z" style="font-style:normal;font-variant:normal;font-weight:400;font-stretch:normal;font-size:6.3499999px;font-family:'DejaVu Sans';-inkscape-font-specification:'DejaVu Sans, Normal';font-variant-ligatures:normal;font-variant-caps:normal;font-variant-numeric:normal;font-feature-settings:normal;text-align:start;writing-mode:lr-tb;text-anchor:start;fill:#fff;fill-opacity:1;stroke-width:.26458332"/><path id="path5311" d="m 27.541618,178.31808 v -1.87895 h 0.570508 v 4.82451 h -0.570508 v -0.5209 q -0.179834,0.31006 -0.455786,0.46199 -0.272851,0.14883 -0.657324,0.14883 -0.629419,0 -1.026294,-0.5023 -0.393774,-0.50229 -0.393774,-1.32085 0,-0.81855 0.393774,-1.32085 0.396875,-0.50229 1.026294,-0.50229 0.384473,0 0.657324,0.15193 0.275952,0.14883 0.455786,0.45888 z m -1.944067,1.21233 q 0,0.62942 0.257349,0.98909 0.260449,0.35657 0.713134,0.35657 0.452686,0 0.713135,-0.35657 0.260449,-0.35967 0.260449,-0.98909 0,-0.62942 -0.260449,-0.98598 -0.260449,-0.35967 -0.713135,-0.35967 -0.452685,0 -0.713134,0.35967 -0.257349,0.35656 -0.257349,0.98598 z" style="font-style:normal;font-variant:normal;font-weight:400;font-stretch:normal;font-size:6.3499999px;font-family:'DejaVu Sans';-inkscape-font-specification:'DejaVu Sans, Normal';font-variant-ligatures:normal;font-variant-caps:normal;font-variant-numeric:normal;font-feature-settings:normal;text-align:start;writing-mode:lr-tb;text-anchor:start;fill:#fff;fill-opacity:1;stroke-width:.26458332"/><path id="path5313" d="m 29.287248,177.79099 h 0.570508 v 3.47265 h -0.570508 z m 0,-1.35186 h 0.570508 v 0.72244 h -0.570508 z" style="font-style:normal;font-variant:normal;font-weight:400;font-stretch:normal;font-size:6.3499999px;font-family:'DejaVu Sans';-inkscape-font-specification:'DejaVu Sans, Normal';font-variant-ligatures:normal;font-variant-caps:normal;font-variant-numeric:normal;font-feature-settings:normal;text-align:start;writing-mode:lr-tb;text-anchor:start;fill:#fff;fill-opacity:1;stroke-width:.26458332"/><path id="path5315" d="m 33.938127,179.16765 v 2.09599 h -0.570508 v -2.07739 q 0,-0.49299 -0.192236,-0.73794 -0.192236,-0.24495 -0.576709,-0.24495 -0.461987,0 -0.728638,0.29456 -0.26665,0.29455 -0.26665,0.80305 v 1.96267 h -0.573608 v -3.47265 h 0.573608 v 0.5395 q 0.204639,-0.31316 0.480591,-0.46819 0.279053,-0.15503 0.641821,-0.15503 0.598413,0 0.905371,0.37207 0.306958,0.36897 0.306958,1.08831 z" style="font-style:normal;font-variant:normal;font-weight:400;font-stretch:normal;font-size:6.3499999px;font-family:'DejaVu Sans';-inkscape-font-specification:'DejaVu Sans, Normal';font-variant-ligatures:normal;font-variant-caps:normal;font-variant-numeric:normal;font-feature-settings:normal;text-align:start;writing-mode:lr-tb;text-anchor:start;fill:#fff;fill-opacity:1;stroke-width:.26458332"/><path id="path5317" d="m 36.654241,179.51801 q -0.691431,0 -0.958081,0.15813 -0.26665,0.15813 -0.26665,0.5395 0,0.30386 0.198437,0.48369 0.201538,0.17674 0.545703,0.17674 0.47439,0 0.759644,-0.33487 0.288354,-0.33796 0.288354,-0.89606 v -0.12713 z m 1.137915,-0.23564 v 1.98127 h -0.570508 v -0.5271 q -0.195337,0.31626 -0.486792,0.46819 -0.291455,0.14883 -0.713135,0.14883 -0.5333,0 -0.84956,-0.29766 -0.313159,-0.30075 -0.313159,-0.80305 0,-0.58601 0.390674,-0.88367 0.393774,-0.29765 1.172021,-0.29765 h 0.799951 v -0.0558 q 0,-0.39378 -0.260449,-0.60772 -0.257349,-0.21704 -0.725537,-0.21704 -0.297656,0 -0.57981,0.0713 -0.282153,0.0713 -0.542602,0.21394 v -0.52709 q 0.313159,-0.12093 0.607715,-0.17984 0.294555,-0.062 0.573608,-0.062 0.753442,0 1.125513,0.39067 0.37207,0.39068 0.37207,1.18443 z" style="font-style:normal;font-variant:normal;font-weight:400;font-stretch:normal;font-size:6.3499999px;font-family:'DejaVu Sans';-inkscape-font-specification:'DejaVu Sans, Normal';font-variant-ligatures:normal;font-variant-caps:normal;font-variant-numeric:normal;font-feature-settings:normal;text-align:start;writing-mode:lr-tb;text-anchor:start;fill:#fff;fill-opacity:1;stroke-width:.26458332"/><path id="path5319" d="m 38.967278,176.43913 h 0.570508 v 4.82451 h -0.570508 z" style="font-style:normal;font-variant:normal;font-weight:400;font-stretch:normal;font-size:6.3499999px;font-family:'DejaVu Sans';-inkscape-font-specification:'DejaVu Sans, Normal';font-variant-ligatures:normal;font-variant-caps:normal;font-variant-numeric:normal;font-feature-settings:normal;text-align:start;writing-mode:lr-tb;text-anchor:start;fill:#fff;fill-opacity:1;stroke-width:.26458332"/></g></g><g style="font-style:normal;font-variant:normal;font-weight:400;font-stretch:normal;font-size:10.58329964px;line-height:1.25;font-family:'DejaVu Sans';-inkscape-font-specification:'DejaVu Sans, Normal';font-variant-ligatures:normal;font-variant-caps:normal;font-variant-numeric:normal;text-align:start;letter-spacing:0;word-spacing:0;writing-mode:lr-tb;text-anchor:start;fill:#808a8a;fill-opacity:1;stroke:none;stroke-width:.26458299" id="text845" aria-label="glBars"><path style="font-style:normal;font-variant:normal;font-weight:400;font-stretch:normal;font-size:4.93888998px;font-family:'DejaVu Sans';-inkscape-font-specification:'DejaVu Sans, Normal';font-variant-ligatures:normal;font-variant-caps:normal;font-variant-numeric:normal;font-feature-settings:normal;text-align:start;writing-mode:lr-tb;text-anchor:start;fill:#808a8a;fill-opacity:1;stroke-width:.26458299" id="path864" d="m 57.964247,187.27129 q 0,-0.48231 -0.20016,-0.74758 -0.197749,-0.26527 -0.557073,-0.26527 -0.356912,0 -0.557072,0.26527 -0.197748,0.26527 -0.197748,0.74758 0,0.47991 0.197748,0.74518 0.20016,0.26527 0.557072,0.26527 0.359324,0 0.557073,-0.26527 0.20016,-0.26527 0.20016,-0.74518 z m 0.443728,1.04662 q 0,0.68971 -0.306269,1.02492 -0.306269,0.33762 -0.9381,0.33762 -0.233922,0 -0.441317,-0.0362 -0.207394,-0.0338 -0.402731,-0.10611 v -0.43167 q 0.195337,0.10611 0.38585,0.15675 0.190514,0.0506 0.388263,0.0506 0.436493,0 0.653535,-0.2291 0.217041,-0.22668 0.217041,-0.68729 v -0.21946 q -0.13746,0.23875 -0.352089,0.35692 -0.21463,0.11816 -0.513664,0.11816 -0.496783,0 -0.80064,-0.37861 -0.303858,-0.37862 -0.303858,-1.00322 0,-0.627 0.303858,-1.00562 0.303857,-0.37862 0.80064,-0.37862 0.299034,0 0.513664,0.11817 0.214629,0.11817 0.352089,0.35691 v -0.40996 h 0.443728 z"/><path style="font-style:normal;font-variant:normal;font-weight:400;font-stretch:normal;font-size:4.93888998px;font-family:'DejaVu Sans';-inkscape-font-specification:'DejaVu Sans, Normal';font-variant-ligatures:normal;font-variant-caps:normal;font-variant-numeric:normal;font-feature-settings:normal;text-align:start;writing-mode:lr-tb;text-anchor:start;fill:#808a8a;fill-opacity:1;stroke-width:.26458299" id="path866" d="m 59.321959,184.90072 h 0.443729 v 3.7524 h -0.443729 z"/><path style="font-style:normal;font-variant:normal;font-weight:400;font-stretch:normal;font-size:4.93888998px;font-family:'DejaVu Sans';-inkscape-font-specification:'DejaVu Sans, Normal';font-variant-ligatures:normal;font-variant-caps:normal;font-variant-numeric:normal;font-feature-settings:normal;text-align:start;writing-mode:lr-tb;text-anchor:start;fill:#808a8a;fill-opacity:1;stroke-width:.26458299" id="path868" d="m 61.20057,186.93367 v 1.31913 h 0.781348 q 0.393085,0 0.581187,-0.16157 0.190514,-0.16399 0.190514,-0.4992 0,-0.33762 -0.190514,-0.49678 -0.188102,-0.16158 -0.581187,-0.16158 z m 0,-1.4807 v 1.08521 h 0.721059 q 0.356912,0 0.530544,-0.13264 0.176045,-0.13505 0.176045,-0.40997 0,-0.2725 -0.176045,-0.40755 -0.173632,-0.13505 -0.530544,-0.13505 z m -0.487137,-0.40032 h 1.244369 q 0.557072,0 0.858518,0.23151 0.301446,0.23151 0.301446,0.65836 0,0.33038 -0.15434,0.52572 -0.154341,0.19534 -0.453375,0.24357 0.359324,0.0772 0.557072,0.32315 0.20016,0.24357 0.20016,0.61013 0,0.48231 -0.327973,0.74517 -0.327973,0.26286 -0.933277,0.26286 h -1.2926 z"/><path style="font-style:normal;font-variant:normal;font-weight:400;font-stretch:normal;font-size:4.93888998px;font-family:'DejaVu Sans';-inkscape-font-specification:'DejaVu Sans, Normal';font-variant-ligatures:normal;font-variant-caps:normal;font-variant-numeric:normal;font-feature-settings:normal;text-align:start;writing-mode:lr-tb;text-anchor:start;fill:#808a8a;fill-opacity:1;stroke-width:.26458299" id="path870" d="m 65.309881,187.29541 q -0.53778,0 -0.745174,0.12299 -0.207395,0.12299 -0.207395,0.41961 0,0.23634 0.15434,0.37621 0.156752,0.13746 0.424436,0.13746 0.36897,0 0.590834,-0.26045 0.224276,-0.26286 0.224276,-0.69695 v -0.0989 z m 0.885045,-0.18328 v 1.54099 h -0.443728 v -0.40996 q -0.151929,0.24598 -0.378616,0.36414 -0.226688,0.11576 -0.554661,0.11576 -0.41479,0 -0.660769,-0.23151 -0.243569,-0.23393 -0.243569,-0.6246 0,-0.45579 0.303858,-0.6873 0.306269,-0.23151 0.911572,-0.23151 h 0.622185 v -0.0434 q 0,-0.30627 -0.202572,-0.47267 -0.20016,-0.16881 -0.564307,-0.16881 -0.23151,0 -0.450963,0.0555 -0.219453,0.0555 -0.422024,0.1664 v -0.40996 q 0.243568,-0.0941 0.472667,-0.13987 0.229099,-0.0482 0.44614,-0.0482 0.586011,0 0.875399,0.30386 0.289388,0.30386 0.289388,0.92122 z"/><path style="font-style:normal;font-variant:normal;font-weight:400;font-stretch:normal;font-size:4.93888998px;font-family:'DejaVu Sans';-inkscape-font-specification:'DejaVu Sans, Normal';font-variant-ligatures:normal;font-variant-caps:normal;font-variant-numeric:normal;font-feature-settings:normal;text-align:start;writing-mode:lr-tb;text-anchor:start;fill:#808a8a;fill-opacity:1;stroke-width:.26458299" id="path872" d="m 68.674018,186.36696 q -0.07476,-0.0434 -0.163986,-0.0627 -0.08682,-0.0217 -0.192926,-0.0217 -0.376204,0 -0.578776,0.24598 -0.20016,0.24357 -0.20016,0.70177 v 1.42282 h -0.44614 v -2.70095 h 0.44614 v 0.41961 q 0.139871,-0.24598 0.364147,-0.36415 0.224275,-0.12058 0.545014,-0.12058 0.04582,0 0.101286,0.007 0.05547,0.005 0.12299,0.0169 z"/><path style="font-style:normal;font-variant:normal;font-weight:400;font-stretch:normal;font-size:4.93888998px;font-family:'DejaVu Sans';-inkscape-font-specification:'DejaVu Sans, Normal';font-variant-ligatures:normal;font-variant-caps:normal;font-variant-numeric:normal;font-feature-settings:normal;text-align:start;writing-mode:lr-tb;text-anchor:start;fill:#808a8a;fill-opacity:1;stroke-width:.26458299" id="path874" d="m 70.86131,186.03175 v 0.41961 q -0.188103,-0.0965 -0.390674,-0.14469 -0.202572,-0.0482 -0.419613,-0.0482 -0.330385,0 -0.496783,0.10128 -0.163987,0.10129 -0.163987,0.30386 0,0.15434 0.118167,0.24357 0.118167,0.0868 0.475079,0.1664 l 0.151929,0.0338 q 0.472667,0.10128 0.670415,0.28697 0.200161,0.18328 0.200161,0.51367 0,0.3762 -0.299035,0.59565 -0.296623,0.21946 -0.817521,0.21946 -0.217041,0 -0.453375,-0.0434 -0.233922,-0.041 -0.494371,-0.1254 v -0.4582 q 0.24598,0.12781 0.484725,0.19293 0.238745,0.0627 0.472667,0.0627 0.313504,0 0.482314,-0.10611 0.168809,-0.10852 0.168809,-0.30386 0,-0.18087 -0.12299,-0.27733 -0.120578,-0.0965 -0.532956,-0.18569 l -0.15434,-0.0362 q -0.412378,-0.0868 -0.595657,-0.26528 -0.18328,-0.18086 -0.18328,-0.49437 0,-0.38103 0.270096,-0.58842 0.270096,-0.2074 0.766878,-0.2074 0.24598,0 0.463021,0.0362 0.217041,0.0362 0.400321,0.10852 z"/></g></g></svg>