<svg xmlns="http://www.w3.org/2000/svg" xmlns:svg="http://www.w3.org/2000/svg" id="svg4620" width="172.8" height="128.5mm" version="1.1" viewBox="0 0 45.72 128.5"><defs id="defs4614"><style id="style6" type="text/css">.str0{stroke:#565656;stroke-width:.0966867}.str1{stroke:#4f4f4f;stroke-width:.193345}.fil0{fill:none}</style></defs><metadata id="metadata4617"/><g id="layer1" transform="translate(0,-168.5)"><g style="fill-rule:evenodd" id="g5299" transform="matrix(6.342689,0,0,6.342689,5.4472535,175.6457)"><g id="Layer_x0020_1" transform="translate(-1.6191379e-5,-0.08553947)"><metadata id="CorelCorpID_0Corel-Layer"/><circle style="fill:none;stroke:#fff;stroke-width:.0966867;stroke-opacity:1" id="circle10" cx=".525" cy=".611" r=".159" class="fil0 str0"/><circle style="fill:none;stroke:#fff;stroke-width:.193345;stroke-opacity:1" id="circle12" cx=".525" cy=".611" r=".429" class="fil0 str1"/></g></g><g style="font-style:normal;font-variant:normal;font-weight:400;font-stretch:normal;font-size:10.58333302px;line-height:1.25;font-family:'DejaVu Sans';-inkscape-font-specification:'DejaVu Sans, Normal';font-variant-ligatures:normal;font-variant-caps:normal;font-variant-numeric:normal;text-align:start;letter-spacing:0;word-spacing:0;writing-mode:lr-tb;text-anchor:start;fill:#000;fill-opacity:1;stroke:none;stroke-width:.26458332" id="text5303" aria-label="Cardinal" transform="translate(-0.09449404,0.14174107)"><path style="font-style:normal;font-variant:normal;font-weight:400;font-stretch:normal;font-size:6.3499999px;font-family:'DejaVu Sans';-inkscape-font-specification:'DejaVu Sans, Normal';font-variant-ligatures:normal;font-variant-caps:normal;font-variant-numeric:normal;font-feature-settings:normal;text-align:start;writing-mode:lr-tb;text-anchor:start;fill:#fff;fill-opacity:1;stroke-width:.26458332" id="path5305" d="m 17.923601,176.99103 v 0.66043 q -0.31626,-0.29456 -0.675928,-0.44028 -0.356567,-0.14573 -0.759643,-0.14573 -0.79375,0 -1.21543,0.48679 -0.42168,0.48369 -0.42168,1.40146 0,0.91468 0.42168,1.40147 0.42168,0.48369 1.21543,0.48369 0.403076,0 0.759643,-0.14573 0.359668,-0.14572 0.675928,-0.44028 v 0.65422 q -0.328662,0.22325 -0.697632,0.33487 -0.365869,0.11162 -0.775146,0.11162 -1.051099,0 -1.655713,-0.64182 -0.604615,-0.64492 -0.604615,-1.75804 0,-1.11621 0.604615,-1.75803 0.604614,-0.64492 1.655713,-0.64492 0.415478,0 0.781347,0.11162 0.36897,0.10852 0.691431,0.32866 z"/><path style="font-style:normal;font-variant:normal;font-weight:400;font-stretch:normal;font-size:6.3499999px;font-family:'DejaVu Sans';-inkscape-font-specification:'DejaVu Sans, Normal';font-variant-ligatures:normal;font-variant-caps:normal;font-variant-numeric:normal;font-feature-settings:normal;text-align:start;writing-mode:lr-tb;text-anchor:start;fill:#fff;fill-opacity:1;stroke-width:.26458332" id="path5307" d="m 20.444377,179.51801 q -0.69143,0 -0.958081,0.15813 -0.26665,0.15813 -0.26665,0.5395 0,0.30386 0.198437,0.48369 0.201538,0.17674 0.545703,0.17674 0.47439,0 0.759644,-0.33487 0.288355,-0.33796 0.288355,-0.89606 v -0.12713 z m 1.137915,-0.23564 v 1.98127 h -0.570507 v -0.5271 q -0.195337,0.31626 -0.486792,0.46819 -0.291456,0.14883 -0.713135,0.14883 -0.533301,0 -0.849561,-0.29766 -0.313159,-0.30075 -0.313159,-0.80305 0,-0.58601 0.390674,-0.88367 0.393774,-0.29765 1.172021,-0.29765 h 0.799952 v -0.0558 q 0,-0.39378 -0.26045,-0.60772 -0.257348,-0.21704 -0.725537,-0.21704 -0.297656,0 -0.579809,0.0713 -0.282154,0.0713 -0.542603,0.21394 v -0.52709 q 0.313159,-0.12093 0.607715,-0.17984 0.294556,-0.062 0.573608,-0.062 0.753443,0 1.125513,0.39067 0.37207,0.39068 0.37207,1.18443 z"/><path style="font-style:normal;font-variant:normal;font-weight:400;font-stretch:normal;font-size:6.3499999px;font-family:'DejaVu Sans';-inkscape-font-specification:'DejaVu Sans, Normal';font-variant-ligatures:normal;font-variant-caps:normal;font-variant-numeric:normal;font-feature-settings:normal;text-align:start;writing-mode:lr-tb;text-anchor:start;fill:#fff;fill-opacity:1;stroke-width:.26458332" id="path5309" d="m 24.769695,178.32429 q -0.09612,-0.0558 -0.21084,-0.0806 -0.111621,-0.0279 -0.248047,-0.0279 -0.483691,0 -0.744141,0.31626 -0.257348,0.31315 -0.257348,0.90227 v 1.82934 H 22.73571 v -3.47265 h 0.573609 v 0.5395 q 0.179834,-0.31626 0.468188,-0.46819 0.288355,-0.15503 0.700733,-0.15503 0.05891,0 0.130224,0.009 0.07131,0.006 0.15813,0.0217 z"/><path style="font-style:normal;font-variant:normal;font-weight:400;font-stretch:normal;font-size:6.3499999px;font-family:'DejaVu Sans';-inkscape-font-specification:'DejaVu Sans, Normal';font-variant-ligatures:normal;font-variant-caps:normal;font-variant-numeric:normal;font-feature-settings:normal;text-align:start;writing-mode:lr-tb;text-anchor:start;fill:#fff;fill-opacity:1;stroke-width:.26458332" id="path5311" d="m 27.541618,178.31808 v -1.87895 h 0.570508 v 4.82451 h -0.570508 v -0.5209 q -0.179834,0.31006 -0.455786,0.46199 -0.272851,0.14883 -0.657324,0.14883 -0.629419,0 -1.026294,-0.5023 -0.393774,-0.50229 -0.393774,-1.32085 0,-0.81855 0.393774,-1.32085 0.396875,-0.50229 1.026294,-0.50229 0.384473,0 0.657324,0.15193 0.275952,0.14883 0.455786,0.45888 z m -1.944067,1.21233 q 0,0.62942 0.257349,0.98909 0.260449,0.35657 0.713134,0.35657 0.452686,0 0.713135,-0.35657 0.260449,-0.35967 0.260449,-0.98909 0,-0.62942 -0.260449,-0.98598 -0.260449,-0.35967 -0.713135,-0.35967 -0.452685,0 -0.713134,0.35967 -0.257349,0.35656 -0.257349,0.98598 z"/><path style="font-style:normal;font-variant:normal;font-weight:400;font-stretch:normal;font-size:6.3499999px;font-family:'DejaVu Sans';-inkscape-font-specification:'DejaVu Sans, Normal';font-variant-ligatures:normal;font-variant-caps:normal;font-variant-numeric:normal;font-feature-settings:normal;text-align:start;writing-mode:lr-tb;text-anchor:start;fill:#fff;fill-opacity:1;stroke-width:.26458332" id="path5313" d="m 29.287248,177.79099 h 0.570508 v 3.47265 h -0.570508 z m 0,-1.35186 h 0.570508 v 0.72244 h -0.570508 z"/><path style="font-style:normal;font-variant:normal;font-weight:400;font-stretch:normal;font-size:6.3499999px;font-family:'DejaVu Sans';-inkscape-font-specification:'DejaVu Sans, Normal';font-variant-ligatures:normal;font-variant-caps:normal;font-variant-numeric:normal;font-feature-settings:normal;text-align:start;writing-mode:lr-tb;text-anchor:start;fill:#fff;fill-opacity:1;stroke-width:.26458332" id="path5315" d="m 33.938127,179.16765 v 2.09599 h -0.570508 v -2.07739 q 0,-0.49299 -0.192236,-0.73794 -0.192236,-0.24495 -0.576709,-0.24495 -0.461987,0 -0.728638,0.29456 -0.26665,0.29455 -0.26665,0.80305 v 1.96267 h -0.573608 v -3.47265 h 0.573608 v 0.5395 q 0.204639,-0.31316 0.480591,-0.46819 0.279053,-0.15503 0.641821,-0.15503 0.598413,0 0.905371,0.37207 0.306958,0.36897 0.306958,1.08831 z"/><path style="font-style:normal;font-variant:normal;font-weight:400;font-stretch:normal;font-size:6.3499999px;font-family:'DejaVu Sans';-inkscape-font-specification:'DejaVu Sans, Normal';font-variant-ligatures:normal;font-variant-caps:normal;font-variant-numeric:normal;font-feature-settings:normal;text-align:start;writing-mode:lr-tb;text-anchor:start;fill:#fff;fill-opacity:1;stroke-width:.26458332" id="path5317" d="m 36.654241,179.51801 q -0.691431,0 -0.958081,0.15813 -0.26665,0.15813 -0.26665,0.5395 0,0.30386 0.198437,0.48369 0.201538,0.17674 0.545703,0.17674 0.47439,0 0.759644,-0.33487 0.288354,-0.33796 0.288354,-0.89606 v -0.12713 z m 1.137915,-0.23564 v 1.98127 h -0.570508 v -0.5271 q -0.195337,0.31626 -0.486792,0.46819 -0.291455,0.14883 -0.713135,0.14883 -0.5333,0 -0.84956,-0.29766 -0.313159,-0.30075 -0.313159,-0.80305 0,-0.58601 0.390674,-0.88367 0.393774,-0.29765 1.172021,-0.29765 h 0.799951 v -0.0558 q 0,-0.39378 -0.260449,-0.60772 -0.257349,-0.21704 -0.725537,-0.21704 -0.297656,0 -0.57981,0.0713 -0.282153,0.0713 -0.542602,0.21394 v -0.52709 q 0.313159,-0.12093 0.607715,-0.17984 0.294555,-0.062 0.573608,-0.062 0.753442,0 1.125513,0.39067 0.37207,0.39068 0.37207,1.18443 z"/><path style="font-style:normal;font-variant:normal;font-weight:400;font-stretch:normal;font-size:6.3499999px;font-family:'DejaVu Sans';-inkscape-font-specification:'DejaVu Sans, Normal';font-variant-ligatures:normal;font-variant-caps:normal;font-variant-numeric:normal;font-feature-settings:normal;text-align:start;writing-mode:lr-tb;text-anchor:start;fill:#fff;fill-opacity:1;stroke-width:.26458332" id="path5319" d="m 38.967278,176.43913 h 0.570508 v 4.82451 h -0.570508 z"/></g><g style="font-style:normal;font-variant:normal;font-weight:400;font-stretch:normal;font-size:10.58329964px;line-height:1.25;font-family:'DejaVu Sans';-inkscape-font-specification:'DejaVu Sans, Normal';font-variant-ligatures:normal;font-variant-caps:normal;font-variant-numeric:normal;text-align:start;letter-spacing:0;word-spacing:0;writing-mode:lr-tb;text-anchor:start;fill:#808a8a;fill-opacity:1;stroke:none;stroke-width:.26458299" id="text845" aria-label="Host MIDI"><path style="font-style:normal;font-variant:normal;font-weight:400;font-stretch:normal;font-size:4.93888998px;font-family:'DejaVu Sans';-inkscape-font-specification:'DejaVu Sans, Normal';font-variant-ligatures:normal;font-variant-caps:normal;font-variant-numeric:normal;font-feature-settings:normal;text-align:start;writing-mode:lr-tb;text-anchor:start;fill:#808a8a;fill-opacity:1;stroke-width:.26458299" id="path829" d="M 11.448463,185.05265 H 11.9356 v 1.47588 h 1.770091 v -1.47588 h 0.487136 v 3.60047 H 13.705691 V 186.9385 H 11.9356 v 1.71462 h -0.487137 z"/><path style="font-style:normal;font-variant:normal;font-weight:400;font-stretch:normal;font-size:4.93888998px;font-family:'DejaVu Sans';-inkscape-font-specification:'DejaVu Sans, Normal';font-variant-ligatures:normal;font-variant-caps:normal;font-variant-numeric:normal;font-feature-settings:normal;text-align:start;writing-mode:lr-tb;text-anchor:start;fill:#808a8a;fill-opacity:1;stroke-width:.26458299" id="path831" d="m 16.189605,186.26326 q -0.356912,0 -0.564307,0.27974 -0.207395,0.27733 -0.207395,0.76206 0,0.48472 0.204984,0.76446 0.207394,0.27733 0.566718,0.27733 0.3545,0 0.561895,-0.27974 0.207395,-0.27974 0.207395,-0.76205 0,-0.47991 -0.207395,-0.75965 -0.207395,-0.28215 -0.561895,-0.28215 z m 0,-0.37621 q 0.578776,0 0.909161,0.37621 0.330385,0.3762 0.330385,1.0418 0,0.66318 -0.330385,1.04179 -0.330385,0.37621 -0.909161,0.37621 -0.581188,0 -0.911573,-0.37621 -0.327973,-0.37861 -0.327973,-1.04179 0,-0.6656 0.327973,-1.0418 0.330385,-0.37621 0.911573,-0.37621 z"/><path style="font-style:normal;font-variant:normal;font-weight:400;font-stretch:normal;font-size:4.93888998px;font-family:'DejaVu Sans';-inkscape-font-specification:'DejaVu Sans, Normal';font-variant-ligatures:normal;font-variant-caps:normal;font-variant-numeric:normal;font-feature-settings:normal;text-align:start;writing-mode:lr-tb;text-anchor:start;fill:#808a8a;fill-opacity:1;stroke-width:.26458299" id="path833" d="m 19.886538,186.03175 v 0.41961 q -0.188102,-0.0965 -0.390674,-0.14469 -0.202572,-0.0482 -0.419613,-0.0482 -0.330384,0 -0.496783,0.10128 -0.163986,0.10129 -0.163986,0.30386 0,0.15434 0.118167,0.24357 0.118167,0.0868 0.475078,0.1664 l 0.151929,0.0338 q 0.472667,0.10128 0.670416,0.28697 0.20016,0.18328 0.20016,0.51367 0,0.3762 -0.299034,0.59565 -0.296623,0.21946 -0.817522,0.21946 -0.217041,0 -0.453374,-0.0434 -0.233922,-0.041 -0.494372,-0.1254 v -0.4582 q 0.24598,0.12781 0.484725,0.19293 0.238746,0.0627 0.472668,0.0627 0.313503,0 0.482313,-0.10611 0.16881,-0.10852 0.16881,-0.30386 0,-0.18087 -0.12299,-0.27733 -0.120578,-0.0965 -0.532957,-0.18569 l -0.15434,-0.0362 q -0.412378,-0.0868 -0.595657,-0.26528 -0.183279,-0.18086 -0.183279,-0.49437 0,-0.38103 0.270095,-0.58842 0.270096,-0.2074 0.766879,-0.2074 0.24598,0 0.463021,0.0362 0.217041,0.0362 0.40032,0.10852 z"/><path style="font-style:normal;font-variant:normal;font-weight:400;font-stretch:normal;font-size:4.93888998px;font-family:'DejaVu Sans';-inkscape-font-specification:'DejaVu Sans, Normal';font-variant-ligatures:normal;font-variant-caps:normal;font-variant-numeric:normal;font-feature-settings:normal;text-align:start;writing-mode:lr-tb;text-anchor:start;fill:#808a8a;fill-opacity:1;stroke-width:.26458299" id="path835" d="m 21.176726,185.18529 v 0.76688 h 0.913984 v 0.34485 h -0.913984 v 1.46623 q 0,0.33039 0.08923,0.42444 0.09164,0.0941 0.36897,0.0941 h 0.455786 v 0.37138 h -0.455786 q -0.513664,0 -0.709001,-0.19051 -0.195337,-0.19293 -0.195337,-0.69936 v -1.46623 h -0.325561 v -0.34485 h 0.325561 v -0.76688 z"/><path style="font-style:normal;font-variant:normal;font-weight:400;font-stretch:normal;font-size:4.93888998px;font-family:'DejaVu Sans';-inkscape-font-specification:'DejaVu Sans, Normal';font-variant-ligatures:normal;font-variant-caps:normal;font-variant-numeric:normal;font-feature-settings:normal;text-align:start;writing-mode:lr-tb;text-anchor:start;fill:#808a8a;fill-opacity:1;stroke-width:.26458299" id="path837" d="m 24.263533,185.05265 h 0.725881 l 0.918808,2.45015 0.92363,-2.45015 h 0.725882 v 3.60047 h -0.475079 v -3.16156 L 26.154202,187.961 H 25.664653 L 24.7362,185.49156 v 3.16156 h -0.472667 z"/><path style="font-style:normal;font-variant:normal;font-weight:400;font-stretch:normal;font-size:4.93888998px;font-family:'DejaVu Sans';-inkscape-font-specification:'DejaVu Sans, Normal';font-variant-ligatures:normal;font-variant-caps:normal;font-variant-numeric:normal;font-feature-settings:normal;text-align:start;writing-mode:lr-tb;text-anchor:start;fill:#808a8a;fill-opacity:1;stroke-width:.26458299" id="path839" d="m 28.524773,185.05265 h 0.487136 v 3.60047 h -0.487136 z"/><path style="font-style:normal;font-variant:normal;font-weight:400;font-stretch:normal;font-size:4.93888998px;font-family:'DejaVu Sans';-inkscape-font-specification:'DejaVu Sans, Normal';font-variant-ligatures:normal;font-variant-caps:normal;font-variant-numeric:normal;font-feature-settings:normal;text-align:start;writing-mode:lr-tb;text-anchor:start;fill:#808a8a;fill-opacity:1;stroke-width:.26458299" id="path841" d="m 30.468496,185.45297 v 2.79983 h 0.588423 q 0.745174,0 1.090028,-0.33762 0.347266,-0.33762 0.347266,-1.06591 0,-0.72347 -0.347266,-1.05868 -0.344854,-0.33762 -1.090028,-0.33762 z m -0.487136,-0.40032 h 1.0008 q 1.04662,0 1.536168,0.4365 0.489549,0.43408 0.489549,1.36012 0,0.93086 -0.49196,1.36736 -0.49196,0.43649 -1.533757,0.43649 h -1.0008 z"/><path style="font-style:normal;font-variant:normal;font-weight:400;font-stretch:normal;font-size:4.93888998px;font-family:'DejaVu Sans';-inkscape-font-specification:'DejaVu Sans, Normal';font-variant-ligatures:normal;font-variant-caps:normal;font-variant-numeric:normal;font-feature-settings:normal;text-align:start;writing-mode:lr-tb;text-anchor:start;fill:#808a8a;fill-opacity:1;stroke-width:.26458299" id="path843" d="m 33.784401,185.05265 h 0.487137 v 3.60047 h -0.487137 z"/></g></g></svg>