<svg xmlns="http://www.w3.org/2000/svg" xmlns:svg="http://www.w3.org/2000/svg" style="fill-rule:evenodd" id="svg2" width="13.038" height="13.038" version="1.1" viewBox="0 0 1.05 1.05" xml:space="preserve"><metadata id="metadata32"/><defs id="defs4"><style id="style6" type="text/css">.str0{stroke:#565656;stroke-width:.0966867}.str1{stroke:#4f4f4f;stroke-width:.193345}.fil0{fill:none}</style></defs><g id="Layer_x0020_1" transform="translate(-1.6191379e-5,-0.08553947)"><metadata id="CorelCorpID_0Corel-Layer"/><circle id="circle10" cx=".525" cy=".611" r=".159" d="m 0.684386,0.61075097 c 0,0.0879016 -0.0712584,0.15916001 -0.15916,0.15916001 -0.0879016,0 -0.15916001,-0.0712584 -0.15916001,-0.15916001 0,-0.0879016 0.0712584,-0.15916 0.15916001,-0.15916 0.0879016,0 0.15916,0.0712584 0.15916,0.15916 z" class="fil0 str0" style="fill:none;stroke:#fff;stroke-width:.0966867;stroke-opacity:1"/><circle id="circle12" cx=".525" cy=".611" r=".429" d="m 0.953765,0.61075097 c 0,0.23667556 -0.19186344,0.42853903 -0.428539,0.42853903 -0.23667556,0 -0.42853901,-0.19186347 -0.42853901,-0.42853903 0,-0.23667556 0.19186345,-0.428539 0.42853901,-0.428539 0.23667556,0 0.428539,0.19186344 0.428539,0.428539 z" class="fil0 str1" style="fill:none;stroke:#fff;stroke-width:.19334499999999999;stroke-opacity:1"/></g></svg>